<svg width="40" height="40" viewBox="0 0 40 40" fill="none" xmlns="http://www.w3.org/2000/svg">
<g clip-path="url(#clip0_1012_42767)">
<path d="M21.2607 20.7142L14.3857 12.472L16.8076 20.7142H21.2607ZM15.5186 20.7142L13.2139 12.9408V15.4017C13.2139 16.6127 12.2373 17.5892 11.0264 17.5892C9.81543 17.5892 8.83887 16.6127 8.83887 15.4017V15.0892C8.83887 14.7377 9.1123 14.4642 9.46387 14.4642C9.81543 14.4642 10.0889 14.7377 10.0889 15.0892V15.4017C10.0889 15.9095 10.5186 16.3392 11.0264 16.3392C11.5342 16.3392 11.9639 15.9095 11.9639 15.4017V10.5189C11.9639 9.93298 12.4326 9.46423 13.0186 9.46423C13.3311 9.46423 13.6436 9.58142 13.8389 9.85486L22.5889 20.3627V16.3392C22.5889 15.3236 23.4482 14.4642 24.4639 14.4642H28.292C29.0732 14.4642 29.7764 14.933 30.0498 15.6752L31.8467 20.2845C31.9248 20.4799 31.9639 20.7142 31.9639 20.9486V25.7142C31.9639 27.0814 30.8311 28.2142 29.4639 28.2142H29.3467C28.917 29.6595 27.5889 30.7142 26.0264 30.7142C24.4639 30.7142 23.1357 29.6595 22.7061 28.2142H18.7217C18.292 29.6595 16.9639 30.7142 15.4014 30.7142C13.8389 30.7142 12.5107 29.6595 12.0811 28.2142H11.9639C10.5967 28.2142 9.46387 27.0814 9.46387 25.7142V23.2142C9.46387 21.847 10.5967 20.7142 11.9639 20.7142H15.5186ZM26.0264 23.8392C27.8232 23.8392 29.3076 25.2064 29.4639 26.9642C30.167 26.9642 30.7139 26.4174 30.7139 25.7142V21.9642H11.9639C11.2607 21.9642 10.7139 22.5111 10.7139 23.2142V25.7142C10.7139 26.4174 11.2607 26.9642 11.9639 26.9642C12.1201 25.2064 13.6045 23.8392 15.4014 23.8392C17.1982 23.8392 18.6826 25.2064 18.8389 26.9642H22.5889C22.7451 25.2064 24.2295 23.8392 26.0264 23.8392ZM23.8389 20.7142H30.6748L28.8779 16.1049C28.7998 15.8705 28.5654 15.7142 28.292 15.7142H24.4639C24.1123 15.7142 23.8389 15.9877 23.8389 16.3392V20.7142ZM17.5889 27.2767C17.5889 26.0658 16.6123 25.0892 15.4014 25.0892C14.1904 25.0892 13.2139 26.0658 13.2139 27.2767C13.2139 28.4877 14.1904 29.4642 15.4014 29.4642C16.6123 29.4642 17.5889 28.4877 17.5889 27.2767ZM26.0264 29.4642C27.2373 29.4642 28.2139 28.4877 28.2139 27.2767C28.2139 26.0658 27.2373 25.0892 26.0264 25.0892C24.8154 25.0892 23.8389 26.0658 23.8389 27.2767C23.8389 28.4877 24.8154 29.4642 26.0264 29.4642Z" fill="black" fill-opacity="0.56"/>
</g>
<defs>
<clipPath id="clip0_1012_42767">
<rect width="23.5714" height="23.5714" fill="white" transform="translate(8.21387 8.21423)"/>
</clipPath>
</defs>
</svg>
