<svg width="40" height="40" viewBox="0 0 40 40" fill="none" xmlns="http://www.w3.org/2000/svg">
<path d="M13.9639 15.0892C13.9639 15.4799 14.042 15.8314 14.1592 16.1439C14.1982 16.3392 14.1982 16.5345 14.0811 16.6908C14.0029 16.847 13.8467 16.9642 13.6514 17.0033C12.4014 17.1595 11.4639 18.2142 11.4639 19.4642C11.4639 20.8314 12.5967 21.9642 13.9639 21.9642H26.4639C27.8311 21.9642 28.9639 20.8314 28.9639 19.4642C28.9639 18.097 27.8311 16.9642 26.4639 16.9642C26.2295 16.9642 26.0342 17.0033 25.7998 17.0424C25.5654 17.1205 25.3311 17.0424 25.1748 16.8861C25.0186 16.6908 24.9795 16.4564 25.0576 16.222C25.1748 15.9877 25.2139 15.7142 25.2139 15.4017C25.2139 14.1908 24.2373 13.2142 23.0264 13.2142C22.2451 13.2142 21.5811 13.6439 21.1904 14.2299C21.0342 14.4252 20.7998 14.5424 20.5654 14.5424C20.3311 14.5033 20.1357 14.347 20.0576 14.1127C19.6279 12.8627 18.4561 11.9642 17.0889 11.9642C15.3701 11.9642 13.9639 13.3705 13.9639 15.0892ZM17.0889 10.7142C18.6514 10.7142 20.0186 11.5345 20.7998 12.7845C21.4248 12.2767 22.167 11.9642 23.0264 11.9642C24.9404 11.9642 26.4639 13.4877 26.4639 15.4017C26.4639 15.5189 26.4639 15.597 26.4639 15.7142C28.5342 15.7142 30.2139 17.3939 30.2139 19.4642C30.2139 21.5345 28.5342 23.2142 26.4639 23.2142H13.9639C11.8936 23.2142 10.2139 21.5345 10.2139 19.4642C10.2139 17.8236 11.3076 16.3783 12.792 15.9095C12.7529 15.6361 12.7139 15.3627 12.7139 15.0892C12.7139 12.6674 14.667 10.7142 17.0889 10.7142ZM20.7998 25.4799L21.9326 28.0189C22.0498 28.2533 22.0889 28.5267 22.0889 28.8002V28.8392C22.0889 29.8939 21.2686 30.7142 20.2139 30.7142C19.1982 30.7142 18.3389 29.8939 18.3389 28.8392V28.8002C18.3389 28.5267 18.3779 28.2533 18.4951 28.0189L19.6279 25.4799C19.7451 25.2455 19.9795 25.0892 20.2139 25.0892C20.4482 25.0892 20.6826 25.2455 20.7998 25.4799ZM19.6279 28.5267C19.5889 28.6049 19.5889 28.722 19.5889 28.8002V28.8392C19.5889 29.1908 19.8623 29.4642 20.2139 29.4642C20.5654 29.4642 20.8389 29.1908 20.8389 28.8392V28.8002C20.8389 28.722 20.7998 28.6049 20.7607 28.5267L20.2139 27.2377L19.6279 28.5267ZM14.5889 25.0892C14.8232 25.0892 15.0576 25.2455 15.1748 25.4799L16.3076 28.0189C16.4248 28.2533 16.4639 28.5267 16.4639 28.8002V28.8392C16.4639 29.8939 15.6436 30.7142 14.5889 30.7142C13.5732 30.7142 12.7139 29.8939 12.7139 28.8392V28.8002C12.7139 28.5267 12.7529 28.2533 12.8701 28.0189L14.0029 25.4799C14.1201 25.2455 14.3545 25.0892 14.5889 25.0892ZM14.5889 27.2377L14.042 28.5267C14.0029 28.6049 13.9639 28.722 13.9639 28.8002V28.8392C13.9639 29.1908 14.2373 29.4642 14.5889 29.4642C14.9404 29.4642 15.2139 29.1908 15.2139 28.8392V28.8002C15.2139 28.722 15.2139 28.6049 15.1748 28.5267L14.5889 27.2377ZM26.4248 25.4799L27.5576 28.0189C27.6748 28.2533 27.7139 28.5267 27.7139 28.8002V28.8392C27.7139 29.8939 26.8936 30.7142 25.8389 30.7142C24.8232 30.7142 23.9639 29.8939 23.9639 28.8392V28.8002C23.9639 28.5267 24.0029 28.2533 24.1201 28.0189L25.2529 25.4799C25.3701 25.2455 25.6045 25.0892 25.8389 25.0892C26.0732 25.0892 26.3076 25.2455 26.4248 25.4799ZM25.2529 28.5267C25.2139 28.6049 25.2139 28.722 25.2139 28.8002V28.8392C25.2139 29.1908 25.4873 29.4642 25.8389 29.4642C26.1904 29.4642 26.4639 29.1908 26.4639 28.8392V28.8002C26.4639 28.722 26.4248 28.6049 26.3857 28.5267L25.8389 27.2377L25.2529 28.5267Z" fill="black" fill-opacity="0.56"/>
</svg>
