<svg width="40" height="40" viewBox="0 0 40 40" fill="none" xmlns="http://www.w3.org/2000/svg">
<g clip-path="url(#clip0_1109_36757)">
<path d="M16.9639 11.3392C16.9639 11.6908 16.6904 11.9642 16.3389 11.9642C15.9873 11.9642 15.7139 11.6908 15.7139 11.3392V9.46423C15.7139 9.11267 15.9873 8.83923 16.3389 8.83923C16.6904 8.83923 16.9639 9.11267 16.9639 9.46423V11.3392ZM9.46387 16.9642C9.1123 16.9642 8.83887 16.6908 8.83887 16.3392C8.83887 15.9877 9.1123 15.7142 9.46387 15.7142H11.3389C11.6904 15.7142 11.9639 15.9877 11.9639 16.3392C11.9639 16.6908 11.6904 16.9642 11.3389 16.9642H9.46387ZM19.4248 13.2533C19.1904 13.0189 19.1904 12.6283 19.4248 12.3549L20.7529 11.0267C20.9873 10.7924 21.417 10.7924 21.6514 11.0267C21.8857 11.3002 21.8857 11.6908 21.6514 11.9252L20.3232 13.2533C20.0889 13.4877 19.6592 13.4877 19.4248 13.2533ZM11.9248 21.6517C11.6904 21.8861 11.2607 21.8861 11.0264 21.6517C10.792 21.4174 10.792 20.9877 11.0264 20.7533L12.3545 19.4252C12.5889 19.1908 13.0186 19.1908 13.2529 19.4252C13.4873 19.6986 13.4873 20.0892 13.2529 20.3236L11.9248 21.6517ZM11.0264 11.0267C11.2998 10.7924 11.6904 10.7924 11.9248 11.0267L13.2529 12.3549C13.4873 12.6283 13.4873 13.0189 13.2529 13.2533C13.0186 13.4877 12.5889 13.4877 12.3545 13.2533L11.0264 11.9252C10.792 11.6908 10.792 11.3002 11.0264 11.0267ZM21.8076 16.222C21.2998 16.0658 20.7139 16.3002 20.4404 16.7689L18.8779 19.308L29.7764 22.2377L29.6982 19.2689C29.6982 18.722 29.3076 18.2533 28.7607 18.097L21.8076 16.222ZM19.3467 16.1439C19.9326 15.1674 21.0654 14.7377 22.1592 15.0111L29.1123 16.8861C30.167 17.1595 30.9092 18.1361 30.9482 19.2299L31.0264 22.7064C31.9639 23.2533 32.4326 24.3861 32.1201 25.4799C31.8467 26.5736 31.5342 27.6674 30.5186 31.4955C30.4404 31.847 30.0889 32.0424 29.7373 31.9252C29.4248 31.847 29.2295 31.4955 29.3076 31.183L29.6201 29.972L15.1279 26.0658L14.8154 27.2767C14.7373 27.6283 14.3857 27.8236 14.0342 27.7455C13.7217 27.6283 13.5264 27.3158 13.6045 26.9642C13.9951 25.558 13.5654 27.1595 15.2451 20.9486C15.5186 19.8549 16.4951 19.1127 17.5498 19.0736L19.3467 16.1439ZM30.4404 26.9642L30.9092 25.1283C31.1045 24.4642 30.7139 23.8002 30.0498 23.6049L17.9795 20.3627C17.3154 20.2064 16.6123 20.597 16.417 21.2611C16.1045 22.472 15.792 23.683 15.4795 24.8939L29.9717 28.7611L30.4404 26.9642ZM18.292 23.9955C17.7842 23.8783 17.4717 23.3705 17.6279 22.8627C17.7451 22.3549 18.2529 22.0814 18.7607 22.1986C19.2686 22.3158 19.5811 22.8627 19.4248 23.3314C19.3076 23.8392 18.7998 24.1517 18.292 23.9955ZM29.0732 25.9486C28.9561 26.4564 28.4482 26.7299 27.9404 26.6127C27.4326 26.4564 27.1592 25.9486 27.2764 25.4408C27.3936 24.933 27.9404 24.6595 28.4092 24.7767C28.917 24.933 29.2295 25.4408 29.0732 25.9486Z" fill="black" fill-opacity="0.56"/>
</g>
<defs>
<clipPath id="clip0_1109_36757">
<rect width="23.5714" height="23.5714" fill="white" transform="translate(8.21387 8.21423)"/>
</clipPath>
</defs>
</svg>
