<svg width="40" height="40" viewBox="0 0 40 40" fill="none" xmlns="http://www.w3.org/2000/svg">
<path d="M19.2373 11.0267C19.8623 10.7533 20.5654 10.7533 21.1904 11.0267L28.1045 13.9564C28.9639 14.308 29.5889 15.1674 29.5889 16.183C29.5889 20.0502 27.9873 27.1595 21.2295 30.3627C20.6045 30.6752 19.8232 30.6752 19.1982 30.3627C12.4404 27.1595 10.8779 20.0502 10.8389 16.183C10.8389 15.1674 11.4639 14.308 12.3232 13.9564L19.2373 11.0267ZM20.7217 12.1595C20.4092 12.0424 20.0576 12.0424 19.7451 12.1595L12.8311 15.0892C12.4014 15.2845 12.0889 15.7142 12.0889 16.183C12.1279 19.8549 13.6123 26.3392 19.7451 29.2299C20.0186 29.3861 20.4092 29.3861 20.7217 29.2299C26.8154 26.3392 28.3389 19.8549 28.3389 16.183C28.3389 15.7142 28.0654 15.2845 27.5967 15.0892L20.7217 12.1595ZM22.8311 17.3549C23.0264 17.0814 23.417 17.0424 23.6904 17.2377C24.0029 17.433 24.042 17.8236 23.8467 18.097L19.7061 23.7611C19.6279 23.9174 19.4326 23.9955 19.2764 24.0345C19.0811 24.0345 18.8857 23.9564 18.7686 23.8392L16.6592 21.6517C16.4248 21.3783 16.4248 20.9877 16.6592 20.7533C16.8936 20.5189 17.3232 20.5189 17.5576 20.7533L19.1592 22.433L22.8311 17.3549Z" fill="black" fill-opacity="0.56"/>
</svg>
