<svg width="40" height="40" viewBox="0 0 40 40" fill="none" xmlns="http://www.w3.org/2000/svg">
<g clip-path="url(#clip0_1010_34366)">
<path d="M26.9639 15.7142V25.7142H29.4639C30.167 25.7142 30.7139 25.1674 30.7139 24.4642V16.9642C30.7139 16.2611 30.167 15.7142 29.4639 15.7142H26.9639ZM25.7139 15.7142H15.7139V25.7142H25.7139V15.7142ZM14.4639 25.7142V15.7142H11.9639C11.2607 15.7142 10.7139 16.2611 10.7139 16.9642V24.4642C10.7139 25.1674 11.2607 25.7142 11.9639 25.7142H14.4639ZM14.4639 14.4642H29.4639C30.8311 14.4642 31.9639 15.597 31.9639 16.9642V24.4642C31.9639 25.8314 30.8311 26.9642 29.4639 26.9642H11.9639C10.5967 26.9642 9.46387 25.8314 9.46387 24.4642V16.9642C9.46387 15.597 10.5967 14.4642 11.9639 14.4642H14.4639ZM18.8389 17.9017C19.3467 17.9017 19.7764 18.3314 19.7764 18.8392C19.7764 19.347 19.3467 19.7767 18.8389 19.7767C18.3311 19.7767 17.9014 19.347 17.9014 18.8392C17.9014 18.3314 18.3311 17.9017 18.8389 17.9017ZM21.6514 18.8392C21.6514 18.3314 22.0811 17.9017 22.5889 17.9017C23.0967 17.9017 23.5264 18.3314 23.5264 18.8392C23.5264 19.347 23.0967 19.7767 22.5889 19.7767C22.0811 19.7767 21.6514 19.347 21.6514 18.8392ZM18.8389 21.6517C19.3467 21.6517 19.7764 22.0814 19.7764 22.5892C19.7764 23.097 19.3467 23.5267 18.8389 23.5267C18.3311 23.5267 17.9014 23.097 17.9014 22.5892C17.9014 22.0814 18.3311 21.6517 18.8389 21.6517ZM21.6514 22.5892C21.6514 22.0814 22.0811 21.6517 22.5889 21.6517C23.0967 21.6517 23.5264 22.0814 23.5264 22.5892C23.5264 23.097 23.0967 23.5267 22.5889 23.5267C22.0811 23.5267 21.6514 23.097 21.6514 22.5892Z" fill="black" fill-opacity="0.56"/>
</g>
<defs>
<clipPath id="clip0_1010_34366">
<rect width="23.5714" height="23.5714" fill="white" transform="translate(8.21387 8.21423)"/>
</clipPath>
</defs>
</svg>
