<svg width="40" height="40" viewBox="0 0 40 40" fill="none" xmlns="http://www.w3.org/2000/svg">
<path d="M22.9482 25.7142C23.2607 25.7142 23.5732 25.597 23.8076 25.3627L28.6123 20.558C28.8467 20.3236 28.9639 20.0111 28.9639 19.6986V13.2142C28.9639 12.5111 28.417 11.9642 27.7139 11.9642H16.4639C15.7607 11.9642 15.2139 12.5111 15.2139 13.2142V24.4642C15.2139 25.1674 15.7607 25.7142 16.4639 25.7142H22.9482ZM16.4639 26.9642C15.0967 26.9642 13.9639 25.8314 13.9639 24.4642V13.2142C13.9639 11.847 15.0967 10.7142 16.4639 10.7142H27.7139C29.0811 10.7142 30.2139 11.847 30.2139 13.2142V19.6986C30.2139 20.3627 29.9404 20.9877 29.4717 21.4564L24.7061 26.222C24.2373 26.6908 23.5732 26.9642 22.9092 26.9642H16.4639ZM10.8389 14.4642C11.1904 14.4642 11.4639 14.7377 11.4639 15.0892V28.2142C11.4639 28.9174 12.0107 29.4642 12.7139 29.4642H23.3389C23.6904 29.4642 23.9639 29.7377 23.9639 30.0892C23.9639 30.4408 23.6904 30.7142 23.3389 30.7142H12.7139C11.3467 30.7142 10.2139 29.5814 10.2139 28.2142V15.0892C10.2139 14.7377 10.4873 14.4642 10.8389 14.4642ZM21.4639 15.0892H22.7139C23.417 15.0892 23.9639 15.6361 23.9639 16.3392V16.9642H24.5889C25.292 16.9642 25.8389 17.5111 25.8389 18.2142V19.4642C25.8389 20.1674 25.292 20.7142 24.5889 20.7142H23.9639V21.3392C23.9639 22.0424 23.417 22.5892 22.7139 22.5892H21.4639C20.7607 22.5892 20.2139 22.0424 20.2139 21.3392V20.7142H19.5889C18.8857 20.7142 18.3389 20.1674 18.3389 19.4642V18.2142C18.3389 17.5111 18.8857 16.9642 19.5889 16.9642H20.2139V16.3392C20.2139 15.6361 20.7607 15.0892 21.4639 15.0892ZM22.7139 20.4017V19.7767C22.7139 19.6205 22.8701 19.4642 23.0264 19.4642H24.5889V18.2142H23.0264C22.8701 18.2142 22.7139 18.058 22.7139 17.9017V16.3392H21.4639V17.9017C21.4639 18.058 21.3076 18.2142 21.1514 18.2142H19.5889V19.4642H21.1514C21.3076 19.4642 21.4639 19.6205 21.4639 19.7767V21.3392H22.7139V20.4017Z" fill="black" fill-opacity="0.56"/>
</svg>
