<svg width="209" height="38" viewBox="0 0 209 38" fill="none" xmlns="http://www.w3.org/2000/svg">
<path d="M0 26.7715H115.784L104.534 37.3149L0 26.7715Z" fill="white"/>
<path d="M13.634 0H22.9416C27.6681 0 28.897 2.70097 27.9413 6.95106C27.3439 9.58804 25.578 13.7741 19.5205 13.7741H15.6891L13.5508 23.2333H8.38281L13.634 0ZM16.4936 10.1995H19.3702C20.9072 10.1995 22.3271 8.62195 22.6788 7.07994C23.1089 5.17975 22.9264 3.57374 20.5991 3.57374H17.9985L16.4936 10.1995Z" fill="white"/>
<path d="M35.7886 0L30.5374 23.2298H25.7163L30.9675 0H35.7886Z" fill="white"/>
<path d="M36.4278 23.6083L35.4418 7.2301H40.2364L40.1183 18.6535H40.1863L45.3695 7.2301H50.0232L38.2882 29.6271H33.2241L36.4278 23.6083Z" fill="white"/>
<path d="M55.9568 8.64774H56.0249C56.5501 7.99695 57.2355 7.47584 58.0223 7.1292C58.8091 6.78257 59.6736 6.62079 60.5416 6.65778C61.2733 6.60713 62.0024 6.78416 62.6166 7.1616C63.2307 7.53904 63.6957 8.09592 63.94 8.74639C64.5516 8.07801 65.3122 7.5444 66.1677 7.18344C67.0233 6.82248 67.9529 6.64301 68.8906 6.65778C71.1811 6.65778 72.9129 7.96516 72.4024 10.2529L69.4568 23.4795H64.6357L67.1663 12.1157C67.4934 10.6448 67.4745 9.50095 65.9374 9.50095C64.4004 9.50095 63.871 10.6448 63.5401 12.1157L61.0095 23.4795H56.283L58.8136 12.1157C59.1406 10.6448 59.1217 9.50095 57.5847 9.50095C56.0476 9.50095 55.5144 10.6448 55.1873 12.1157L52.6482 23.4795H47.8271L51.5035 6.98485H56.3246L55.9568 8.64774Z" fill="white"/>
<path d="M72.8776 14.9766C73.8825 10.5327 75.4234 6.74036 81.79 6.74036C88.1567 6.74036 87.9809 10.5363 86.977 14.9766C85.8275 20.0603 84.1987 23.635 77.97 23.635C71.7414 23.635 71.7282 20.0639 72.8776 14.9766ZM82.2079 14.7188C82.9726 11.3415 83.1863 9.63508 81.1312 9.63508C79.0761 9.63508 78.5212 11.3415 77.7555 14.7188C76.6324 19.6737 76.8385 20.7367 78.6195 20.7367C80.4004 20.7367 81.0896 19.6808 82.2079 14.7188Z" fill="white"/>
<path d="M95.4876 21.6726H95.4195C94.8891 22.3163 94.202 22.8307 93.416 23.1725C92.6299 23.5144 91.768 23.6736 90.9028 23.6368C88.6124 23.6368 86.8843 22.3489 87.391 20.095L90.3366 7.06122H95.1577L92.6148 18.3219C92.2877 19.7706 92.3217 20.8336 93.8626 20.8336C95.4035 20.8336 95.9177 19.7671 96.2448 18.3219L98.7905 7.05945H103.612L100.666 20.0933C100.426 21.1598 100.247 22.2467 100.11 23.3097H95.1142L95.4876 21.6726Z" fill="white"/>
<path d="M105.045 6.9804H106.997L107.579 4.4083L112.861 2.38013L111.821 6.98129H114.321L113.69 9.77913H111.189L109.226 18.466C108.948 19.6898 108.735 20.4941 110.306 20.4941C110.599 20.5069 110.891 20.4854 111.178 20.4301L110.543 23.228C109.702 23.3305 108.856 23.3843 108.008 23.3889C103.834 23.3889 103.875 20.7848 104.1 19.7858L106.369 9.77913H104.417L105.045 6.9804Z" fill="white"/>
<path d="M120.758 23.2298L123.289 12.0313C123.616 10.5826 123.597 9.45384 122.06 9.45384C120.523 9.45384 119.989 10.5808 119.666 12.0313L117.136 23.2298H112.314L117.566 0H122.387L120.438 8.62107H120.507C121.037 7.97785 121.724 7.46398 122.51 7.12277C123.297 6.78155 124.158 6.62299 125.023 6.66044C127.314 6.66044 129.042 7.94827 128.535 10.2022L125.589 23.2324H120.761L120.758 23.2298Z" fill="white"/>
<path d="M140.718 23.2298H135.55L140.802 0H150.349C153.877 0 155.653 2.1215 154.759 6.0783C154.09 9.04056 152.358 11.2589 148.888 11.7735L148.873 11.8375C149.972 11.9628 153.267 12.2241 152.324 16.4058C151.989 17.8874 151.103 22.2628 151.365 23.2244H146.3C145.935 21.8113 146.426 20.2337 146.773 18.7201C147.401 15.9543 148.204 13.6044 144.235 13.6044H142.899L140.718 23.2298ZM143.702 10.0351H145.996C148.051 10.0351 149.066 8.10647 149.399 6.62222C149.901 4.4003 149.099 3.56663 147.455 3.56663H145.164L143.702 10.0351Z" fill="white"/>
<path d="M154.132 14.9766C155.137 10.5327 156.678 6.74036 163.044 6.74036C169.411 6.74036 169.235 10.5363 168.231 14.9766C167.082 20.0603 165.453 23.635 159.224 23.635C152.996 23.635 152.983 20.0639 154.132 14.9766ZM163.466 14.7188C164.231 11.3415 164.448 9.63508 162.389 9.63508C160.33 9.63508 159.779 11.3415 159.014 14.7188C157.892 19.6737 158.1 20.7367 159.878 20.7367C161.655 20.7367 162.343 19.6808 163.466 14.7188Z" fill="white"/>
<path d="M179.393 12.8544C179.937 10.4396 179.468 9.63437 177.961 9.63437C175.91 9.63437 175.351 11.3408 174.586 14.7181C173.467 19.673 173.673 20.736 175.45 20.736C176.957 20.736 177.965 19.4517 178.448 17.3267H183.269C182.272 21.7341 179.308 23.6369 174.795 23.6369C168.565 23.6369 168.55 20.0667 169.699 14.9785C170.704 10.5347 172.245 6.74231 178.611 6.74231C183.06 6.74231 185.171 8.60873 184.212 12.8562L179.393 12.8544Z" fill="white"/>
<path d="M183.494 23.2298L188.745 0H193.566L190.442 13.8381H190.511L196.409 6.98306H201.44L194.91 14.2239L198.313 23.2324H192.872L190.39 14.3847H190.322L188.325 23.2298H183.494Z" fill="white"/>
<path d="M121.458 30.987C121.815 29.3614 121.93 28.4033 119.97 28.4033C119.484 28.3881 119.007 28.5278 118.616 28.7996C118.225 29.0715 117.943 29.4596 117.816 29.9009H115.876C116.428 27.8425 118.254 27.1119 120.176 27.1119C122.173 27.1119 124.023 27.6914 123.448 30.3115L122.459 34.7998C122.364 35.2104 122.215 35.9996 122.101 36.7853H120.861C120.686 36.7853 120.336 36.8742 120.367 36.6529C120.423 36.2236 120.474 35.8121 120.549 35.3828H120.511C120.146 35.9133 119.642 36.347 119.048 36.6426C118.454 36.9382 117.789 37.0858 117.117 37.0715C115.431 37.0715 113.909 36.2272 114.312 34.3963C114.894 31.7611 117.485 30.9941 119.795 30.9941H121.461L121.458 30.987ZM119.342 32.2197C118.208 32.2748 116.625 32.6641 116.325 34.0328C116.244 34.2477 116.224 34.4785 116.267 34.7028C116.31 34.9271 116.413 35.1372 116.568 35.3124C116.723 35.4877 116.924 35.6222 117.15 35.7027C117.377 35.7833 117.622 35.8072 117.862 35.7721C120.036 35.7721 120.841 33.9555 121.183 32.217H119.342V32.2197Z" fill="white"/>
<path d="M130.023 27.1119C131.868 27.1119 133.775 27.8603 133.17 29.9924H131.229C131.571 28.7926 130.708 28.3998 129.638 28.3998C129.152 28.3618 128.668 28.4935 128.278 28.7697C127.889 29.0459 127.621 29.4473 127.526 29.8973C127.294 30.9434 128.944 31.0207 129.6 31.226C131.134 31.7469 132.991 31.9371 132.531 34.0479C132.025 36.3489 129.54 37.0573 127.542 37.0573C125.506 37.0573 123.999 36.1614 124.495 33.9892H126.436C126.36 34.21 126.345 34.4451 126.393 34.6727C126.44 34.9003 126.548 35.1128 126.707 35.2904C126.865 35.468 127.069 35.6048 127.299 35.6882C127.53 35.7715 127.778 35.7985 128.023 35.7668C128.585 35.8294 129.153 35.6991 129.622 35.3999C130.091 35.1007 130.429 34.6525 130.575 34.1377C131.039 32.0419 124.776 33.6168 125.587 29.9507C126.011 27.9918 128.262 27.1119 130.023 27.1119Z" fill="white"/>
<path d="M139.97 27.1118C141.811 27.1118 143.722 27.8602 143.117 29.9923H141.176C141.518 28.7925 140.654 28.3996 139.585 28.3996C139.099 28.3616 138.615 28.4933 138.225 28.7696C137.836 29.0458 137.568 29.4472 137.473 29.8972C137.241 30.9433 138.891 31.0206 139.547 31.2259C141.081 31.7467 142.942 31.9369 142.478 34.0478C141.972 36.3488 139.487 37.0571 137.489 37.0571C135.453 37.0571 133.943 36.1613 134.442 33.9891H136.378C136.302 34.2099 136.287 34.445 136.335 34.6726C136.382 34.9001 136.49 35.1127 136.649 35.2903C136.807 35.4679 137.011 35.6047 137.242 35.688C137.472 35.7714 137.721 35.7984 137.965 35.7667C138.528 35.8293 139.095 35.699 139.564 35.3998C140.033 35.1005 140.371 34.6524 140.517 34.1375C140.978 32.0418 134.718 33.6167 135.525 29.9505C135.958 27.9917 138.207 27.1118 139.97 27.1118Z" fill="white"/>
<path d="M152.29 27.3876H154.131L152.061 36.7854H150.257L150.562 35.3972H150.524C150.086 35.9253 149.525 36.3507 148.883 36.6401C148.241 36.9294 147.536 37.0747 146.825 37.0645C144.785 37.0645 143.952 35.566 144.367 33.6783L145.752 27.3876H147.593L146.364 32.9442C146.007 34.5715 146.132 35.7722 147.898 35.7722C148.398 35.7632 148.888 35.6351 149.321 35.3997C149.754 35.1644 150.117 34.8296 150.375 34.4266C150.771 33.733 151.059 32.9899 151.232 32.2198L152.29 27.3876Z" fill="white"/>
<path d="M156.461 36.7888H154.62L156.686 27.3865H158.531L158.131 29.2014H158.169C158.448 28.6069 158.909 28.104 159.493 27.7571C160.078 27.4103 160.759 27.2351 161.45 27.2541C161.682 27.2541 161.872 27.2727 162.085 27.2727L161.711 28.9614C161.462 28.8815 161.198 28.8491 160.935 28.8663C158.591 28.9436 157.922 30.1408 157.484 32.1254L156.461 36.7888Z" fill="white"/>
<path d="M168.146 30.987C168.503 29.3614 168.619 28.4033 166.658 28.4033C166.172 28.3871 165.694 28.5264 165.303 28.7984C164.912 29.0704 164.631 29.4591 164.505 29.9009H162.564C163.116 27.8425 164.942 27.1119 166.864 27.1119C168.862 27.1119 170.712 27.6914 170.137 30.3115L169.147 34.7998C169.053 35.2104 168.9 35.9996 168.786 36.7853H167.542C167.367 36.7853 167.02 36.8742 167.048 36.6529C167.104 36.2236 167.158 35.8121 167.23 35.3828H167.192C166.826 35.9137 166.322 36.3476 165.727 36.6432C165.132 36.9388 164.467 37.0863 163.794 37.0715C162.108 37.0715 160.586 36.2272 160.989 34.3963C161.572 31.7611 164.163 30.9941 166.472 30.9941H168.146V30.987ZM166.031 32.2197C164.896 32.2748 163.314 32.6641 163.013 34.0328C162.932 34.2477 162.912 34.4787 162.955 34.7031C162.997 34.9275 163.101 35.1376 163.256 35.313C163.411 35.4883 163.612 35.6228 163.839 35.7033C164.066 35.7838 164.311 35.8075 164.55 35.7721C166.724 35.7721 167.53 33.9555 167.876 32.217H166.03L166.031 32.2197Z" fill="white"/>
<path d="M174.667 28.7793H174.705C175.086 28.2827 175.583 27.8744 176.157 27.5855C176.731 27.2966 177.368 27.1346 178.019 27.1119C178.701 27.1119 181.668 27.2808 181.002 30.2964L179.571 36.7933H177.73L179.035 30.8768C179.377 29.3232 178.883 28.4824 177.334 28.4824C176.62 28.4889 175.933 28.7351 175.397 29.1765C175.07 29.437 174.472 29.8485 174.073 31.6811L172.946 36.7933H171.103L173.173 27.3955H174.977L174.667 28.7793Z" fill="white"/>
<path d="M189.126 30.4074C189.29 29.2254 188.89 28.4033 187.57 28.4033C185.805 28.4033 184.801 29.8822 184.313 32.0881C183.825 34.294 184.18 35.7729 185.945 35.7729C186.564 35.7534 187.157 35.5317 187.621 35.146C188.085 34.7602 188.391 34.2346 188.487 33.6594H190.333C190.065 34.636 189.459 35.5008 188.61 36.117C187.761 36.7332 186.717 37.0656 185.645 37.0617C182.525 37.0617 181.752 34.9286 182.365 32.1628C182.97 29.4138 184.91 27.1128 187.997 27.1128C188.448 27.0674 188.904 27.1263 189.325 27.2844C189.746 27.4424 190.12 27.6949 190.413 28.0198C190.707 28.3447 190.912 28.7321 191.01 29.1484C191.108 29.5647 191.097 29.9972 190.976 30.4083L189.126 30.4074Z" fill="white"/>
<path d="M193.784 32.4258C193.286 34.07 193.609 35.7729 195.486 35.7729C196.117 35.8236 196.746 35.6585 197.258 35.3079C197.77 34.9573 198.13 34.4449 198.272 33.8647H200.212C199.868 34.8451 199.188 35.6907 198.279 36.2695C197.369 36.8483 196.281 37.1277 195.185 37.0642C192.061 37.0642 191.293 34.9312 191.901 32.1653C192.51 29.4164 194.454 27.1154 197.533 27.1154C200.429 27.1705 201.415 28.9507 200.842 31.5485L200.648 32.4293L193.784 32.4258ZM198.984 31.193C199.368 29.619 198.9 28.4041 197.116 28.4041C196.344 28.4699 195.619 28.7827 195.063 29.2903C194.507 29.7979 194.153 30.4696 194.06 31.193H198.984Z" fill="white"/>
<path d="M203.762 33.2008C204.286 32.7648 204.964 32.5287 205.664 32.5386C206.368 32.5222 207.053 32.759 207.579 33.2008C207.826 33.4001 208.025 33.6476 208.161 33.926C208.297 34.2045 208.368 34.5074 208.367 34.8139C208.368 35.1186 208.299 35.4198 208.162 35.6963C208.026 35.9727 207.827 36.2176 207.579 36.4137C207.055 36.8592 206.37 37.1002 205.664 37.0874C204.961 37.1002 204.28 36.8591 203.762 36.4137C203.511 36.2179 203.309 35.9726 203.17 35.6952C203.032 35.4178 202.96 35.1151 202.96 34.8086C202.96 34.5021 203.032 34.1994 203.17 33.9219C203.309 33.6445 203.511 33.3992 203.762 33.2034V33.2008ZM204.104 36.1844C204.533 36.5444 205.088 36.7433 205.664 36.7433C206.239 36.7433 206.794 36.5444 207.223 36.1844C207.42 36.0064 207.577 35.793 207.684 35.5568C207.79 35.3206 207.846 35.0666 207.846 34.8099C207.846 34.5532 207.79 34.2992 207.684 34.063C207.577 33.8268 207.42 33.6134 207.223 33.4354C206.792 33.0792 206.238 32.8827 205.664 32.8827C205.09 32.8827 204.535 33.0792 204.104 33.4354C203.9 33.6092 203.738 33.8223 203.629 34.0601C203.52 34.298 203.467 34.5551 203.473 34.8139C203.47 35.0711 203.524 35.3262 203.632 35.5623C203.741 35.7985 203.902 36.0105 204.104 36.1844ZM204.631 33.4772H205.841C206.566 33.4772 206.927 33.7269 206.927 34.2264C206.933 34.323 206.916 34.4194 206.879 34.5095C206.841 34.5995 206.784 34.6812 206.711 34.749C206.633 34.8223 206.539 34.8791 206.436 34.9157C206.332 34.9524 206.222 34.9679 206.112 34.9614L207.013 36.1391H206.467L205.597 34.9614H205.147V36.1391H204.629L204.631 33.4772ZM205.145 34.6202H205.757C205.921 34.6319 206.086 34.6031 206.235 34.5366C206.293 34.5016 206.341 34.4519 206.371 34.3929C206.401 34.334 206.413 34.2683 206.406 34.2033C206.41 34.1393 206.394 34.0757 206.36 34.0199C206.327 33.9641 206.277 33.9186 206.217 33.8887C206.071 33.8373 205.917 33.8117 205.762 33.8131H205.149L205.145 34.6202Z" fill="white"/>
</svg>
